<svg xmlns="http://www.w3.org/2000/svg" width="805" height="600"><rect width="805" height="600" x="0" y="0" fill="#FFFFFF" id="background"/><g transform="translate(80,10)" id="viz"><g id="axis"><g transform="translate(0,540)" fill="none" font-size="10" font-family="sans-serif" text-anchor="middle"><path class="domain" stroke="currentColor" d="M0,6V0H675V6"/><g class="tick" opacity="1" transform="translate(0,0)"><line stroke="currentColor" y2="6"/><text fill="currentColor" y="9" dy="0.71em">19</text></g><g class="tick" opacity="1" transform="translate(75,0)"><line stroke="currentColor" y2="6"/><text fill="currentColor" y="9" dy="0.71em">20</text></g><g class="tick" opacity="1" transform="translate(150,0)"><line stroke="currentColor" y2="6"/><text fill="currentColor" y="9" dy="0.71em">21</text></g><g class="tick" opacity="1" transform="translate(225,0)"><line stroke="currentColor" y2="6"/><text fill="currentColor" y="9" dy="0.71em">22</text></g><g class="tick" opacity="1" transform="translate(300,0)"><line stroke="currentColor" y2="6"/><text fill="currentColor" y="9" dy="0.71em">23</text></g><g class="tick" opacity="1" transform="translate(375,0)"><line stroke="currentColor" y2="6"/><text fill="currentColor" y="9" dy="0.71em">24</text></g><g class="tick" opacity="1" transform="translate(450,0)"><line stroke="currentColor" y2="6"/><text fill="currentColor" y="9" dy="0.71em">25</text></g><g class="tick" opacity="1" transform="translate(525,0)"><line stroke="currentColor" y2="6"/><text fill="currentColor" y="9" dy="0.71em">26</text></g><g class="tick" opacity="1" transform="translate(600,0)"><line stroke="currentColor" y2="6"/><text fill="currentColor" y="9" dy="0.71em">27</text></g><g class="tick" opacity="1" transform="translate(675,0)"><line stroke="currentColor" y2="6"/><text fill="currentColor" y="9" dy="0.71em">28</text></g><text x="675" dy="-5" text-anchor="end" style="font-family: Arial, sans-serif; font-size: 12px; fill: rgb(123, 123, 123); font-weight: bold;">edad</text></g><g fill="none" font-size="10" font-family="sans-serif" text-anchor="end"><path class="domain" stroke="currentColor" d="M0,0V540"/><g class="tick" opacity="1" transform="translate(0,68)"><line stroke="currentColor" x2="675" style="stroke: rgb(204, 204, 204);"/><text fill="currentColor" x="-3" dy="0.32em">A22</text></g><g class="tick" opacity="1" transform="translate(0,203)"><line stroke="currentColor" x2="675" style="stroke: rgb(204, 204, 204);"/><text fill="currentColor" x="-3" dy="0.32em">IN23</text></g><g class="tick" opacity="1" transform="translate(0,338)"><line stroke="currentColor" x2="675" style="stroke: rgb(204, 204, 204);"/><text fill="currentColor" x="-3" dy="0.32em">L20</text></g><g class="tick" opacity="1" transform="translate(0,473)"><line stroke="currentColor" x2="675" style="stroke: rgb(204, 204, 204);"/><text fill="currentColor" x="-3" dy="0.32em">S10-Rev23</text></g><text x="4" text-anchor="start" dominant-baseline="hanging" style="font-family: Arial, sans-serif; font-size: 12px; fill: rgb(123, 123, 123); font-weight: bold;">plan</text></g></g><g id="visualization"><g id="A22"><g id="circles"><circle id="" cx="150" cy="67.5" r="5.25" style="fill: rgb(255, 127, 14);"/><circle id="" cx="75" cy="67.5" r="5.25" style="fill: rgb(255, 127, 14);"/><circle id="" cx="-6.465464694298487" cy="64.29285257974887" r="5.25" style="fill: rgb(31, 119, 180);"/><circle id="" cx="450" cy="67.5" r="5.25" style="fill: rgb(31, 119, 180);"/><circle id="" cx="6.010078310248955" cy="63.504569387814875" r="5.25" style="fill: rgb(31, 119, 180);"/><circle id="" cx="0.45538638404952997" cy="74.70257803243624" r="5.25" style="fill: rgb(255, 127, 14);"/></g><g id="labels"><g id="" transform="translate(150,67.5)"><text x="0" y="0" text-anchor="middle" dominant-baseline="text-before-edge" transform="translate(0,0)"/></g><g id="" transform="translate(75,67.5)"><text x="0" y="0" text-anchor="middle" dominant-baseline="text-before-edge" transform="translate(0,0)"/></g><g id="" transform="translate(-6.465464694298487,64.29285257974887)"><text x="0" y="0" text-anchor="middle" dominant-baseline="text-before-edge" transform="translate(0,0)"/></g><g id="" transform="translate(450,67.5)"><text x="0" y="0" text-anchor="middle" dominant-baseline="text-before-edge" transform="translate(0,0)"/></g><g id="" transform="translate(6.010078310248955,63.504569387814875)"><text x="0" y="0" text-anchor="middle" dominant-baseline="text-before-edge" transform="translate(0,0)"/></g><g id="" transform="translate(0.45538638404952997,74.70257803243624)"><text x="0" y="0" text-anchor="middle" dominant-baseline="text-before-edge" transform="translate(0,0)"/></g></g></g><g id="IN23"><g id="circles"><circle id="" cx="219.48141879641045" cy="195.95053590881918" r="5.25" style="fill: rgb(255, 127, 14);"/><circle id="" cx="231.96276423626836" cy="196.63319048801708" r="5.25" style="fill: rgb(255, 127, 14);"/><circle id="" cx="218.037234726773" cy="208.36682893455318" r="5.25" style="fill: rgb(255, 127, 14);"/><circle id="" cx="230.51858224054797" cy="209.04944466861048" r="5.25" style="fill: rgb(31, 119, 180);"/></g><g id="labels"><g id="" transform="translate(219.48141879641045,195.95053590881918)"><text x="0" y="0" text-anchor="middle" dominant-baseline="text-before-edge" transform="translate(0,0)"/></g><g id="" transform="translate(231.96276423626836,196.63319048801708)"><text x="0" y="0" text-anchor="middle" dominant-baseline="text-before-edge" transform="translate(0,0)"/></g><g id="" transform="translate(218.037234726773,208.36682893455318)"><text x="0" y="0" text-anchor="middle" dominant-baseline="text-before-edge" transform="translate(0,0)"/></g><g id="" transform="translate(230.51858224054797,209.04944466861048)"><text x="0" y="0" text-anchor="middle" dominant-baseline="text-before-edge" transform="translate(0,0)"/></g></g></g><g id="L20"><g id="circles"><circle id="" cx="218.9978877568276" cy="335.75725830360324" r="5.25" style="fill: rgb(255, 127, 14);"/><circle id="" cx="82.07086754495106" cy="338.9459807917818" r="5.25" style="fill: rgb(255, 127, 14);"/><circle id="" cx="72.7167658892602" cy="330.6537346627767" r="5.25" style="fill: rgb(255, 127, 14);"/><circle id="" cx="70.21236656578883" cy="342.9002845454414" r="5.25" style="fill: rgb(255, 127, 14);"/><circle id="" cx="150" cy="337.5" r="5.25" style="fill: rgb(255, 127, 14);"/><circle id="" cx="450" cy="337.5" r="5.25" style="fill: rgb(255, 127, 14);"/><circle id="" cx="231.0021122431724" cy="339.24274169639676" r="5.25" style="fill: rgb(255, 127, 14);"/><circle id="" cx="300" cy="337.5" r="5.25" style="fill: rgb(31, 119, 180);"/></g><g id="labels"><g id="" transform="translate(218.9978877568276,335.75725830360324)"><text x="0" y="0" text-anchor="middle" dominant-baseline="text-before-edge" transform="translate(0,0)"/></g><g id="" transform="translate(82.07086754495106,338.9459807917818)"><text x="0" y="0" text-anchor="middle" dominant-baseline="text-before-edge" transform="translate(0,0)"/></g><g id="" transform="translate(72.7167658892602,330.6537346627767)"><text x="0" y="0" text-anchor="middle" dominant-baseline="text-before-edge" transform="translate(0,0)"/></g><g id="" transform="translate(70.21236656578883,342.9002845454414)"><text x="0" y="0" text-anchor="middle" dominant-baseline="text-before-edge" transform="translate(0,0)"/></g><g id="" transform="translate(150,337.5)"><text x="0" y="0" text-anchor="middle" dominant-baseline="text-before-edge" transform="translate(0,0)"/></g><g id="" transform="translate(450,337.5)"><text x="0" y="0" text-anchor="middle" dominant-baseline="text-before-edge" transform="translate(0,0)"/></g><g id="" transform="translate(231.0021122431724,339.24274169639676)"><text x="0" y="0" text-anchor="middle" dominant-baseline="text-before-edge" transform="translate(0,0)"/></g><g id="" transform="translate(300,337.5)"><text x="0" y="0" text-anchor="middle" dominant-baseline="text-before-edge" transform="translate(0,0)"/></g></g></g><g id="S10-Rev23"><g id="circles"><circle id="" cx="225" cy="472.5" r="5.25" style="fill: rgb(255, 127, 14);"/><circle id="" cx="385.926528020073" cy="466.427606442735" r="5.25" style="fill: rgb(255, 127, 14);"/><circle id="" cx="675" cy="472.5" r="5.25" style="fill: rgb(255, 127, 14);"/><circle id="" cx="375.204731333663" cy="460.0018620165557" r="5.25" style="fill: rgb(255, 127, 14);"/><circle id="" cx="374.79518946919325" cy="484.99897885143855" r="5.25" style="fill: rgb(255, 127, 14);"/><circle id="" cx="375.0002645970704" cy="472.4996736588048" r="5.25" style="fill: rgb(255, 127, 14);"/><circle id="" cx="385.7209534318438" cy="478.92580387308976" r="5.25" style="fill: rgb(255, 127, 14);"/><circle id="" cx="300" cy="472.5" r="5.25" style="fill: rgb(255, 127, 14);"/><circle id="" cx="364.27831665509024" cy="466.07387240556784" r="5.25" style="fill: rgb(255, 127, 14);"/><circle id="" cx="364.07401649306604" cy="478.5722027518089" r="5.25" style="fill: rgb(255, 127, 14);"/></g><g id="labels"><g id="" transform="translate(225,472.5)"><text x="0" y="0" text-anchor="middle" dominant-baseline="text-before-edge" transform="translate(0,0)"/></g><g id="" transform="translate(385.926528020073,466.427606442735)"><text x="0" y="0" text-anchor="middle" dominant-baseline="text-before-edge" transform="translate(0,0)"/></g><g id="" transform="translate(675,472.5)"><text x="0" y="0" text-anchor="middle" dominant-baseline="text-before-edge" transform="translate(0,0)"/></g><g id="" transform="translate(375.204731333663,460.0018620165557)"><text x="0" y="0" text-anchor="middle" dominant-baseline="text-before-edge" transform="translate(0,0)"/></g><g id="" transform="translate(374.79518946919325,484.99897885143855)"><text x="0" y="0" text-anchor="middle" dominant-baseline="text-before-edge" transform="translate(0,0)"/></g><g id="" transform="translate(375.0002645970704,472.4996736588048)"><text x="0" y="0" text-anchor="middle" dominant-baseline="text-before-edge" transform="translate(0,0)"/></g><g id="" transform="translate(385.7209534318438,478.92580387308976)"><text x="0" y="0" text-anchor="middle" dominant-baseline="text-before-edge" transform="translate(0,0)"/></g><g id="" transform="translate(300,472.5)"><text x="0" y="0" text-anchor="middle" dominant-baseline="text-before-edge" transform="translate(0,0)"/></g><g id="" transform="translate(364.27831665509024,466.07387240556784)"><text x="0" y="0" text-anchor="middle" dominant-baseline="text-before-edge" transform="translate(0,0)"/></g><g id="" transform="translate(364.07401649306604,478.5722027518089)"><text x="0" y="0" text-anchor="middle" dominant-baseline="text-before-edge" transform="translate(0,0)"/></g></g></g></g></g></svg>